<?xml version="1.0" encoding="UTF-8"?>
<svg xmlns="http://www.w3.org/2000/svg" width="152" height="40" viewBox="0 0 152 40" fill="none">
  <g clip-path="url(#clip0_750_623)">
    <path d="M98.4893 17.9791C98.118 16.4925 97.3755 15.3775 96.2618 14.6342C95.2757 13.8909 93.9067 13.5192 92.3057 13.5192C90.9484 13.5192 89.707 13.8909 88.7209 14.7619C87.6072 15.633 86.8647 16.6202 86.4935 17.9791H98.4893ZM86.2382 22.0674C86.4819 23.6818 87.1083 25.0407 88.2221 25.9118C89.3358 26.7828 90.6932 27.2706 92.4334 27.2706C93.5471 27.2706 94.6608 27.0267 95.5309 26.5273C96.517 26.0279 97.1435 25.4123 97.7584 24.5413H103.327C102.341 26.899 100.972 28.7573 99.1158 30.1162C97.2595 31.4751 95.0321 32.1022 92.561 32.1022C90.9484 32.1022 89.4634 31.8583 87.9784 31.2312C86.6211 30.7317 85.3797 29.8723 84.266 28.6295C83.2799 27.6423 82.4098 26.2718 81.7949 24.9129C81.296 23.4263 80.9248 22.0674 80.9248 20.453C80.9248 18.9664 81.296 17.4797 81.7949 16.1208C82.2938 14.7619 83.1523 13.5192 84.15 12.532C85.2637 11.2892 86.5051 10.302 87.99 9.68644C89.3474 9.07088 90.8324 8.69922 92.3173 8.69922C94.3012 8.69922 96.0298 9.19864 97.7584 10.0581C99.371 10.9292 100.856 12.1603 101.97 13.7747C102.712 14.6458 103.211 15.7608 103.582 16.9919C103.954 18.1069 104.081 19.4658 104.081 20.9524C104.081 21.0802 104.081 21.3241 104.081 21.568C104.081 21.8119 104.081 21.9396 104.081 22.0674H86.2382Z" fill="#002B44"></path>
    <path d="M36.2393 13.9606C31.796 14.3438 30.6475 16.2486 30.6475 20.453V32.1603H25.4385V20.7085C25.4385 14.3438 29.1277 9.00122 36.2393 9.00122V13.9606Z" fill="#002B44"></path>
    <path d="M70.3403 25.4704C70.3403 17.5146 70.3403 9.5471 70.3403 1.71899H75.7234V9.16383H79.1922V13.9141H75.7234V25.4704C75.7234 26.7596 76.2338 27.3984 77.6492 27.3984H79.1922V32.1487H77.1387C73.5539 32.1487 70.3403 30.093 70.3403 25.4704Z" fill="#002B44"></path>
    <path d="M117.498 8.80371C123.02 8.80371 127.533 12.5668 128.786 17.5842H123.391C122.394 15.4471 120.131 13.9489 117.498 13.9489C113.867 13.9489 110.978 16.8409 110.978 20.4762C110.978 24.1115 113.867 27.0035 117.498 27.0035C120.131 27.0035 122.382 25.4936 123.391 23.3682H128.786C127.533 28.3856 123.02 32.1487 117.498 32.1487C111.105 32.1487 105.838 26.8757 105.838 20.4762C105.838 14.0766 111.105 8.80371 117.498 8.80371Z" fill="#002B44"></path>
    <path d="M136.131 31.5331V22.0906V17.5726C136.131 14.9129 138.393 12.6481 141.177 12.6481C143.834 12.6481 146.096 14.9129 146.096 17.5726V31.5447H151.677V17.6887C151.677 11.9628 146.897 7.1777 141.177 7.1777C139.321 7.1777 137.593 7.71196 136.131 8.51336V0H130.678V17.6887V22.079V31.5215H136.131V31.5331Z" fill="#002B44"></path>
    <path d="M38.0898 32.1137V10.3948H43.2408V32.1253H38.0898V32.1137Z" fill="#002B44"></path>
    <path d="M40.6654 1.67236C42.4752 1.67236 43.9022 3.13578 43.9022 4.94762C43.9022 6.72463 42.4752 8.18804 40.6654 8.18804C38.8556 8.18804 37.3938 6.72463 37.3938 4.94762C37.3938 3.13578 38.8556 1.67236 40.6654 1.67236Z" fill="#0078FF"></path>
    <path d="M50.5958 20.0065C50.5958 22.0971 51.1527 23.7696 52.3012 24.9891C53.4846 26.2086 55.016 26.8358 56.9998 26.8358C58.9488 26.8358 60.515 26.2086 61.6635 24.9543C62.8121 23.6999 63.4037 21.9926 63.4037 19.8672C63.4037 17.9508 62.8121 16.4177 61.5939 15.1633C60.3758 13.9438 58.8444 13.3166 56.9998 13.3166C55.1204 13.3166 53.589 13.9438 52.3708 15.1982C51.1875 16.4061 50.5958 18.0089 50.5958 20.0065ZM45.1548 20.0414C45.1548 18.4386 45.4332 16.9403 46.0249 15.5118C46.6166 14.0832 47.4519 12.794 48.5656 11.679C49.6793 10.5292 50.9671 9.6581 52.394 9.06577C53.821 8.43859 55.3176 8.125 56.849 8.125C58.4848 8.125 59.9813 8.40375 61.3735 8.96124C62.7309 9.48388 64.0186 10.3201 65.1671 11.4003C66.3505 12.5501 67.2554 13.8393 67.9167 15.3375C68.5431 16.8358 68.8564 18.3341 68.8564 19.902C68.8564 21.6442 68.5779 23.2121 68.0211 24.6407C67.4642 26.0693 66.6289 27.3584 65.5152 28.5083C64.3666 29.6929 63.0789 30.564 61.6519 31.1564C60.225 31.7835 58.6588 32.0623 56.9534 32.0623C55.248 32.0623 53.7166 31.7487 52.2896 31.1564C50.8975 30.564 49.6445 29.6581 48.4612 28.4386C47.3822 27.2539 46.547 25.9647 45.9901 24.5361C45.4332 23.1076 45.1548 21.6093 45.1548 20.0414Z" fill="#002B44"></path>
    <path d="M23.779 20.4889C23.779 27.0715 18.4537 32.4102 11.8875 32.4102C10.9559 32.4102 10.0527 32.3041 9.18213 32.1002L15.5774 25.6889C16.1551 25.277 16.6596 24.7712 17.0705 24.1921L23.4658 17.7808C23.6733 18.6495 23.779 19.559 23.779 20.4889Z" fill="#0078FF"></path>
    <path d="M13.2422 26.7247L8.16911 31.8146C7.57107 31.6189 6.99745 31.3742 6.44824 31.0887C6.13091 30.9255 5.82579 30.7502 5.52881 30.5585V20.4888C5.52881 21.7001 5.86647 22.8339 6.44824 23.7964C7.56294 25.6399 9.58486 26.8675 11.8916 26.8675C12.3553 26.8716 12.8069 26.8226 13.2422 26.7247Z" fill="#002B44"></path>
    <path d="M1.93242 13.9755C0.711945 15.8475 0 18.0866 0 20.4888V40.0001L5.52469 34.4616V20.4888C5.52469 19.2775 5.86236 18.1477 6.44412 17.1812C7.55882 15.3377 9.58075 14.1101 11.8875 14.1101C15.4024 14.1101 18.2502 16.965 18.2502 20.4888C18.2502 20.9537 18.2014 21.4105 18.1078 21.8469L23.1809 16.7611C21.6228 12.0056 17.1558 8.57153 11.8875 8.57153C9.92655 8.57153 8.07549 9.04871 6.44412 9.89295C6.44412 9.89295 3.75907 11.1043 1.93242 13.9755Z" fill="#002B44"></path>
  </g>
  <defs>
    <clipPath id="clip0_750_623">
      <rect width="152" height="40" fill="white"></rect>
    </clipPath>
  </defs>
</svg>
