<svg width="105" height="39" viewBox="0 0 105 39" fill="none" xmlns="http://www.w3.org/2000/svg">
<path fill-rule="evenodd" clip-rule="evenodd" d="M65.3807 34.1307V33.4003C65.3807 29.0182 63.4217 28.5312 58.5243 28.5312C53.6269 28.5312 51.668 29.0182 51.668 33.4003V34.1307C51.668 38.5129 53.6269 38.9998 58.5243 38.9998C63.4217 38.9998 65.3807 38.5129 65.3807 34.1307ZM58.4753 31.6475C60.4343 31.6475 61.4628 31.7449 61.4628 33.5951V33.8386C61.4628 35.6888 60.6302 35.7862 58.4753 35.7862C56.3205 35.7862 55.4879 35.6888 55.4879 33.8386V33.5951C55.4879 31.7449 56.5164 31.6475 58.4753 31.6475ZM45.5465 28.7748C48.1421 28.7748 49.3175 29.4564 49.3175 32.524C49.3175 35.1981 48.1637 35.5781 47.4135 35.8251C47.3032 35.8614 47.2015 35.8949 47.1136 35.9323L49.3175 38.7077H45.1547L43.2447 36.2732H39.7675V38.7077H35.8496V28.7261H45.4975L45.5465 28.7748ZM39.8165 31.4528V33.3517H44.8118C44.8495 33.3517 44.8874 33.3523 44.9254 33.3529C45.3812 33.3598 45.8403 33.3667 45.8403 32.3779C45.8403 31.3918 45.5083 31.396 44.9589 31.4029C44.9115 31.4035 44.8624 31.4041 44.8118 31.4041H39.8165V31.4528ZM24.634 38.758V31.9413H19.9814V28.7764H33.2044V31.9413H28.5519V38.758H24.634ZM88.7412 28.7764V38.758H84.8232V28.7764H88.7412ZM98.1435 38.9998C103.824 38.9998 105 38.2694 105 34.6176H100.984C100.984 35.7375 100.494 35.8349 98.1435 35.8349C95.7927 35.8349 95.205 35.7375 95.205 33.8873V33.6438C95.205 31.7935 96.4294 31.6962 98.1435 31.6962C99.8576 31.6962 100.984 31.7935 100.984 32.9134H105C105 29.4077 103.384 28.5312 98.1435 28.5312C92.9033 28.5312 91.2871 29.2129 91.2871 33.4003V34.1307C91.2871 38.4642 92.4625 38.9998 98.1435 38.9998ZM81.6404 28.7764H77.7225V33.4994H77.2818L73.3149 28.7764H67.9277V38.7093H71.8456V33.0612H72.2374L77.2328 38.7093H81.6404V28.7764ZM4.79945 28.8696H0V38.6078H3.81997V33.3979L7.63994 38.6078H9.54992L13.3699 33.3979V38.6078H17.1899V28.8696H12.4394L8.61942 33.7387L4.79945 28.8696Z" fill="url(#paint0_linear_15652_11683)"/>
<path fill-rule="evenodd" clip-rule="evenodd" d="M34.8203 0V19.2816H45.3987V4.62564L38.5913 0H34.8203ZM56.7119 5.2085H48.1904V11.8305H56.7119V5.2085ZM59.5518 4.62564L66.3591 0H70.1301V19.2816H59.5518V4.62564Z" fill="url(#paint1_linear_15652_11683)"/>
<defs>
<linearGradient id="paint0_linear_15652_11683" x1="55.2514" y1="28.5313" x2="55.1966" y2="39.0283" gradientUnits="userSpaceOnUse">
<stop stop-color="#DAF0FE"/>
<stop offset="0.0001" stop-color="#DAF0FE"/>
<stop offset="1" stop-color="#A9CFEF"/>
</linearGradient>
<linearGradient id="paint1_linear_15652_11683" x1="53.4005" y1="4.31851e-08" x2="52.8477" y2="19.3187" gradientUnits="userSpaceOnUse">
<stop stop-color="#DAF0FE"/>
<stop offset="0.0001" stop-color="#DAF0FE"/>
<stop offset="1" stop-color="#A9CFEF"/>
</linearGradient>
</defs>
</svg>
